<svg xmlns="http://www.w3.org/2000/svg" width="166" height="28" fill="none"><path fill="url(#a)" d="M27.78 16.5a14 14 0 0 0 .06-4.62.54.54 0 0 0-.54-.46h-9a.45.45 0 0 1-.44-.56l1.07-3.98c.08-.3.34-.5.65-.5h5.34c.36 0 .57-.39.36-.67A14 14 0 1 0 3.44 23.2c.23.25.65.14.74-.2l3.1-11.61a.34.34 0 0 0-.33-.42H4.26a.45.45 0 0 1-.43-.57l.87-3.27a.6.6 0 0 1 .55-.42 18 18 0 0 0 8.4-2.24c.26-.14.58.1.5.4l-5.7 21.36c-.08.32.08.66.39.78q2.42.96 5.16.98c4.42 0 8.36-2.05 10.93-5.25.22-.28.01-.69-.35-.69h-9.14c-.3 0-.5-.28-.43-.56l1.07-3.98c.07-.3.34-.5.64-.5h10.41c.32 0 .6-.22.65-.53"/><mask id="b" width="130" height="19" x="35" y="7" fill="#000" maskUnits="userSpaceOnUse"><path fill="#fff" d="M35 7h130v19H35z"/><path d="M35.39 21V8.12h7.8l-.1 1.9h-5.32v3.32h5.06v1.89h-5.06v3.87h5.52l-.08 1.9zm13.32.18a3.6 3.6 0 0 1-2.97-1.38 6 6 0 0 1-1.08-3.71q0-2.24 1.07-3.62a3.6 3.6 0 0 1 2.97-1.37q2.06 0 2.9 1.46-.08-.86-.08-1.66V7.78l2.3-.15V21h-2l-.25-1.32q-.15.24-.28.41a3 3 0 0 1-.37.4q-.24.23-.53.36a4 4 0 0 1-1.68.33m.54-1.74q2.33 0 2.36-3.16 0-1.79-.6-2.6t-1.78-.82q-1.05 0-1.66.84a4 4 0 0 0-.62 2.44q0 1.6.62 2.45.61.84 1.68.85m8.7 5.88-.14-1.86h1.17q2.03 0 2.84-.54.8-.54.8-1.98 0-.6-.05-1.28-.23.32-.44.53-.2.2-.51.4-.3.2-.75.31-.44.1-.99.1a4 4 0 0 1-3.15-1.38 5.2 5.2 0 0 1-1.23-3.56q0-1.16.34-2.1.34-.97.93-1.58a4 4 0 0 1 3-1.28q1.95 0 2.9 1.42l.15-1.18h2.06v8.97q0 .73-.07 1.3t-.25 1.1a3.3 3.3 0 0 1-2.2 2.18q-.58.21-1.35.32a12 12 0 0 1-1.74.11zm2.3-5.93q2.4 0 2.41-3.19v-.33a3.7 3.7 0 0 0-.6-2.22 2 2 0 0 0-1.7-.79q-1.26 0-1.9.87a3.8 3.8 0 0 0-.66 2.33q0 1.41.65 2.37.66.96 1.8.96m11.19 1.8a4.8 4.8 0 0 1-3.63-1.34 5 5 0 0 1-1.3-3.71q0-2.3 1.23-3.67a4.3 4.3 0 0 1 3.33-1.37 3.9 3.9 0 0 1 3.1 1.25 4.8 4.8 0 0 1 1.1 3.31v.99h-6.43q.03 1.35.73 2.1.72.73 1.96.73 1.57 0 3.04-.83l.32 1.64q-1.45.9-3.45.9m-2.56-6h4.22q0-1.18-.54-1.81a1.8 1.8 0 0 0-1.48-.63q-.9 0-1.5.61a2.8 2.8 0 0 0-.7 1.83m11.25 2.83q.95 1.23 2.83 1.22 1.86 0 2.82-1.21.96-1.22.96-3.45a5.6 5.6 0 0 0-.96-3.49q-.95-1.23-2.82-1.23t-2.83 1.24a5.6 5.6 0 0 0-.96 3.48q0 2.22.96 3.44m2.82 3.16a6 6 0 0 1-4.6-1.75q-1.68-1.77-1.68-4.87 0-3.12 1.69-4.87a6 6 0 0 1 4.6-1.75q2.9 0 4.58 1.76 1.68 1.75 1.68 4.87 0 3.08-1.69 4.85a6 6 0 0 1-4.58 1.76m8.13-.18v-9.66h1.86l.25 1.22a4.6 4.6 0 0 1 3.28-1.46q1.69 0 2.52.98.84.96.85 2.81V21h-2.32v-5.83q0-1.17-.37-1.75-.38-.58-1.33-.58a2.6 2.6 0 0 0-2.27 1.35 10 10 0 0 0-.17 2.1V21zm15.3.18a4.8 4.8 0 0 1-3.62-1.33 5 5 0 0 1-1.3-3.71q0-2.3 1.23-3.67a4.3 4.3 0 0 1 3.33-1.37 3.9 3.9 0 0 1 3.1 1.25 4.8 4.8 0 0 1 1.1 3.31v.99h-6.43q.03 1.35.73 2.1.72.73 1.96.73 1.57 0 3.04-.83l.32 1.64q-1.45.9-3.45.9m-2.55-5.99h4.22q0-1.18-.54-1.81a1.8 1.8 0 0 0-1.48-.63q-.9 0-1.5.61-.61.62-.7 1.83m12.82 5.8V8.09h4.3a8 8 0 0 1 2.6.4q1.07.37 1.7 1.26.63.88.63 2.2 0 .93-.24 1.65-.23.7-.78 1.3-.54.58-1.54.9-.98.3-2.38.31-1.2 0-1.94-.07V21zm4.04-6.6q.72 0 1.26-.15.55-.14.85-.36t.48-.55.24-.62q.06-.3.06-.68 0-1.07-.69-1.62a3 3 0 0 0-1.93-.56H119v4.51q.1.02 1.69.02m8.93 6.78q-1.34 0-2.18-.73-.83-.75-.83-2.15 0-1.5.99-2.22.99-.74 2.97-.92a33 33 0 0 1 1.92-.2v-.52q0-.87-.4-1.27t-1.23-.4a9 9 0 0 0-2.9.65l-.59-1.59a9 9 0 0 1 3.7-.73q1.95 0 2.83.86.9.84.89 2.74V21h-1.7l-.38-1.18q-.72.7-1.42 1.04-.69.32-1.67.32m.63-1.63q.8 0 1.38-.38.6-.39.86-.93v-1.86l-.94.07q-1.4.13-2.04.52-.65.4-.65 1.3 0 .63.36.95.36.33 1.03.33m8.61 5.77-.13-1.86h1.17q2.03 0 2.84-.54.8-.54.8-1.98 0-.6-.05-1.28-.23.32-.44.53-.2.2-.51.4-.3.2-.75.31-.44.1-.99.1a4 4 0 0 1-3.15-1.38 5.2 5.2 0 0 1-1.23-3.56q0-1.16.34-2.1.34-.97.93-1.58a4 4 0 0 1 3-1.28q1.94 0 2.9 1.42l.15-1.18h2.06v8.97q0 .73-.07 1.3t-.25 1.1a3.3 3.3 0 0 1-1.18 1.66q-.42.32-1.02.52a7 7 0 0 1-1.35.32q-.77.12-1.74.11zm2.31-5.93q2.4 0 2.41-3.19v-.33a3.7 3.7 0 0 0-.6-2.22 2 2 0 0 0-1.7-.79q-1.25 0-1.9.87a3.8 3.8 0 0 0-.66 2.33q0 1.41.65 2.37.66.96 1.8.96m11.19 1.8a4.8 4.8 0 0 1-3.63-1.34 5 5 0 0 1-1.3-3.71q0-2.3 1.23-3.67A4.3 4.3 0 0 1 152 11.1a3.9 3.9 0 0 1 3.1 1.25 4.8 4.8 0 0 1 1.1 3.31v.99h-6.43q.04 1.35.73 2.1.72.73 1.96.73 1.57 0 3.04-.83l.32 1.64q-1.44.9-3.45.9m-2.56-6h4.22q0-1.18-.54-1.81a1.8 1.8 0 0 0-1.48-.63q-.9 0-1.5.61-.6.62-.7 1.83M161 21.18a7 7 0 0 1-3.42-.73l.24-1.74a7 7 0 0 0 3.1.82q.77 0 1.2-.28.43-.3.43-.84 0-.5-.4-.8-.4-.29-1.52-.71l-.5-.19a5 5 0 0 1-1.93-1.15q-.6-.64-.59-1.73 0-1.32.95-2.02.96-.7 2.66-.7a7 7 0 0 1 3.25.69l-.57 1.59a6 6 0 0 0-2.63-.64q-.7 0-1.1.23a.8.8 0 0 0-.38.7q0 .45.38.71a9 9 0 0 0 1.7.73l.3.11q1.33.49 1.96 1.16t.62 1.75q0 1.46-.99 2.24a4.3 4.3 0 0 1-2.76.8"/></mask><path fill="#222934" d="M35.39 21V8.12h7.8l-.1 1.9h-5.32v3.32h5.06v1.89h-5.06v3.87h5.52l-.08 1.9zm13.32.18a3.6 3.6 0 0 1-2.97-1.38 6 6 0 0 1-1.08-3.71q0-2.24 1.07-3.62a3.6 3.6 0 0 1 2.97-1.37q2.06 0 2.9 1.46-.08-.86-.08-1.66V7.78l2.3-.15V21h-2l-.25-1.32q-.15.24-.28.41a3 3 0 0 1-.37.4q-.24.23-.53.36a4 4 0 0 1-1.68.33m.54-1.74q2.33 0 2.36-3.16 0-1.79-.6-2.6t-1.78-.82q-1.05 0-1.66.84a4 4 0 0 0-.62 2.44q0 1.6.62 2.45.61.84 1.68.85m8.7 5.88-.14-1.86h1.17q2.03 0 2.84-.54.8-.54.8-1.98 0-.6-.05-1.28-.23.32-.44.53-.2.2-.51.4-.3.2-.75.31-.44.1-.99.1a4 4 0 0 1-3.15-1.38 5.2 5.2 0 0 1-1.23-3.56q0-1.16.34-2.1.34-.97.93-1.58a4 4 0 0 1 3-1.28q1.95 0 2.9 1.42l.15-1.18h2.06v8.97q0 .73-.07 1.3t-.25 1.1a3.3 3.3 0 0 1-2.2 2.18q-.58.21-1.35.32a12 12 0 0 1-1.74.11zm2.3-5.93q2.4 0 2.41-3.19v-.33a3.7 3.7 0 0 0-.6-2.22 2 2 0 0 0-1.7-.79q-1.26 0-1.9.87a3.8 3.8 0 0 0-.66 2.33q0 1.41.65 2.37.66.96 1.8.96m11.19 1.8a4.8 4.8 0 0 1-3.63-1.34 5 5 0 0 1-1.3-3.71q0-2.3 1.23-3.67a4.3 4.3 0 0 1 3.33-1.37 3.9 3.9 0 0 1 3.1 1.25 4.8 4.8 0 0 1 1.1 3.31v.99h-6.43q.03 1.35.73 2.1.72.73 1.96.73 1.57 0 3.04-.83l.32 1.64q-1.45.9-3.45.9m-2.56-6h4.22q0-1.18-.54-1.81a1.8 1.8 0 0 0-1.48-.63q-.9 0-1.5.61a2.8 2.8 0 0 0-.7 1.83m11.25 2.83q.95 1.23 2.83 1.22 1.86 0 2.82-1.21.96-1.22.96-3.45a5.6 5.6 0 0 0-.96-3.49q-.95-1.23-2.82-1.23t-2.83 1.24a5.6 5.6 0 0 0-.96 3.48q0 2.22.96 3.44m2.82 3.16a6 6 0 0 1-4.6-1.75q-1.68-1.77-1.68-4.87 0-3.12 1.69-4.87a6 6 0 0 1 4.6-1.75q2.9 0 4.58 1.76 1.68 1.75 1.68 4.87 0 3.08-1.69 4.85a6 6 0 0 1-4.58 1.76m8.13-.18v-9.66h1.86l.25 1.22a4.6 4.6 0 0 1 3.28-1.46q1.69 0 2.52.98.84.96.85 2.81V21h-2.32v-5.83q0-1.17-.37-1.75-.38-.58-1.33-.58a2.6 2.6 0 0 0-2.27 1.35 10 10 0 0 0-.17 2.1V21zm15.3.18a4.8 4.8 0 0 1-3.62-1.33 5 5 0 0 1-1.3-3.71q0-2.3 1.23-3.67a4.3 4.3 0 0 1 3.33-1.37 3.9 3.9 0 0 1 3.1 1.25 4.8 4.8 0 0 1 1.1 3.31v.99h-6.43q.03 1.35.73 2.1.72.73 1.96.73 1.57 0 3.04-.83l.32 1.64q-1.45.9-3.45.9m-2.55-5.99h4.22q0-1.18-.54-1.81a1.8 1.8 0 0 0-1.48-.63q-.9 0-1.5.61-.61.62-.7 1.83m12.82 5.8V8.09h4.3a8 8 0 0 1 2.6.4q1.07.37 1.7 1.26.63.88.63 2.2 0 .93-.24 1.65-.23.7-.78 1.3-.54.58-1.54.9-.98.3-2.38.31-1.2 0-1.94-.07V21zm4.04-6.6q.72 0 1.26-.15.55-.14.85-.36t.48-.55.24-.62q.06-.3.06-.68 0-1.07-.69-1.62a3 3 0 0 0-1.93-.56H119v4.51q.1.02 1.69.02m8.93 6.78q-1.34 0-2.18-.73-.83-.75-.83-2.15 0-1.5.99-2.22.99-.74 2.97-.92a33 33 0 0 1 1.92-.2v-.52q0-.87-.4-1.27t-1.23-.4a9 9 0 0 0-2.9.65l-.59-1.59a9 9 0 0 1 3.7-.73q1.95 0 2.83.86.9.84.89 2.74V21h-1.7l-.38-1.18q-.72.7-1.42 1.04-.69.32-1.67.32m.63-1.63q.8 0 1.38-.38.6-.39.86-.93v-1.86l-.94.07q-1.4.13-2.04.52-.65.4-.65 1.3 0 .63.36.95.36.33 1.03.33m8.61 5.77-.13-1.86h1.17q2.03 0 2.84-.54.8-.54.8-1.98 0-.6-.05-1.28-.23.32-.44.53-.2.2-.51.4-.3.2-.75.31-.44.1-.99.1a4 4 0 0 1-3.15-1.38 5.2 5.2 0 0 1-1.23-3.56q0-1.16.34-2.1.34-.97.93-1.58a4 4 0 0 1 3-1.28q1.94 0 2.9 1.42l.15-1.18h2.06v8.97q0 .73-.07 1.3t-.25 1.1a3.3 3.3 0 0 1-1.18 1.66q-.42.32-1.02.52a7 7 0 0 1-1.35.32q-.77.12-1.74.11zm2.31-5.93q2.4 0 2.41-3.19v-.33a3.7 3.7 0 0 0-.6-2.22 2 2 0 0 0-1.7-.79q-1.25 0-1.9.87a3.8 3.8 0 0 0-.66 2.33q0 1.41.65 2.37.66.96 1.8.96m11.19 1.8a4.8 4.8 0 0 1-3.63-1.34 5 5 0 0 1-1.3-3.71q0-2.3 1.23-3.67A4.3 4.3 0 0 1 152 11.1a3.9 3.9 0 0 1 3.1 1.25 4.8 4.8 0 0 1 1.1 3.31v.99h-6.43q.04 1.35.73 2.1.72.73 1.96.73 1.57 0 3.04-.83l.32 1.64q-1.44.9-3.45.9m-2.56-6h4.22q0-1.18-.54-1.81a1.8 1.8 0 0 0-1.48-.63q-.9 0-1.5.61-.6.62-.7 1.83M161 21.18a7 7 0 0 1-3.42-.73l.24-1.74a7 7 0 0 0 3.1.82q.77 0 1.2-.28.43-.3.43-.84 0-.5-.4-.8-.4-.29-1.52-.71l-.5-.19a5 5 0 0 1-1.93-1.15q-.6-.64-.59-1.73 0-1.32.95-2.02.96-.7 2.66-.7a7 7 0 0 1 3.25.69l-.57 1.59a6 6 0 0 0-2.63-.64q-.7 0-1.1.23a.8.8 0 0 0-.38.7q0 .45.38.71a9 9 0 0 0 1.7.73l.3.11q1.33.49 1.96 1.16t.62 1.75q0 1.46-.99 2.24a4.3 4.3 0 0 1-2.76.8"/><path fill="#202C40" d="M35.39 21h-.2v.2h.2zm0-12.88v-.2h-.2v.2zm7.8 0 .2.01.01-.2h-.2zm-.1 1.9v.2h.2v-.2zm-5.32 0v-.2h-.2v.2zm0 3.32h-.2v.2h.2zm5.06 0h.2v-.2h-.2zm0 1.89v.2h.2v-.2zm-5.06 0v-.2h-.2v.2zm0 3.87h-.2v.2h.2zm5.52 0 .2.01v-.2h-.2zm-.08 1.9v.2h.2V21zm-7.82 0h.2V8.12h-.4V21zm0-12.88v.2h7.8v-.4h-7.8zm7.8 0H43L42.9 10l.2.01.2.01.1-1.89zm-.1 1.9v-.2h-5.32v.4h5.33zm-5.32 0h-.2v3.32h.4V10zm0 3.32v.2h5.06v-.4h-5.06zm5.06 0h-.2v1.89h.4v-1.9zm0 1.89v-.2h-5.06v.4h5.06zm-5.06 0h-.2v3.87h.4v-3.87zm0 3.87v.2h5.52v-.4h-5.52zm5.52 0h-.2l-.08 1.9h.4l.08-1.89zm-.08 1.9v-.2H35.4v.4h7.82zm2.52-8.53-.16-.12zm5.88.1-.17.1.37-.13zm-.09-4.79-.01-.2-.19.01v.2zm2.3-.15h.2v-.21l-.2.01zm0 13.37v.2h.2V21zm-2 0-.19.04.03.16h.17zm-.25-1.32.2-.04-.1-.5-.27.44zm-.28.41-.16-.12zm-.37.4.14.15zm-.53.36.08.18zm-.72.23-.05-.2zm1.94-4.8h.2zm-4.04-2.58-.16-.12zm0 4.9-.17.11zm1.14 2.58v-.2q-1.8 0-2.81-1.3l-.16.12-.16.12a3.8 3.8 0 0 0 3.13 1.46zm-2.97-1.38.16-.13a5.7 5.7 0 0 1-1.04-3.58h-.4q-.01 2.37 1.12 3.83zm-1.08-3.71h.2q0-2.2 1.03-3.5l-.16-.12-.16-.12a6 6 0 0 0-1.11 3.74zm1.07-3.62.16.13q1-1.3 2.81-1.3v-.4q-1.98 0-3.13 1.45zm2.97-1.37v.2q1.96.01 2.74 1.36l.17-.1.17-.1q-.93-1.57-3.08-1.56zm2.9 1.46.2-.02a16 16 0 0 1-.08-1.64h-.4q0 .81.09 1.68zm-.08-1.66h.2V7.78h-.4v3.12zm0-3.12.01.2 2.3-.15v-.2l-.02-.2-2.3.15zm2.3-.15h-.2V21h.4V7.63zm0 13.37v-.2h-2v.4h2zm-2 0 .2-.04-.25-1.32-.2.04-.2.04.26 1.32zm-.25-1.32-.17-.1-.27.4.16.11.16.12q.15-.18.3-.42zm-.28.41-.16-.11q-.1.15-.34.36l.13.15.14.15q.25-.24.4-.43zm-.37.4-.13-.15q-.22.21-.49.33l.09.18.08.18q.32-.15.59-.4zm-.53.36-.09-.18q-.26.12-.68.21l.05.2.04.2q.45-.1.76-.25zm-.72.23-.05-.2q-.4.1-.91.1v.4q.55 0 1-.1zm-.42-1.64v.2q1.25 0 1.91-.87a4.2 4.2 0 0 0 .65-2.49h-.4q-.02 1.54-.57 2.25-.51.7-1.59.7zm2.36-3.16h.2q.01-1.81-.64-2.72l-.16.12-.16.12q.55.72.56 2.48zm-.6-2.6.16-.12q-.67-.9-1.94-.9v.4q1.1 0 1.62.74zm-1.78-.82v-.2q-1.14 0-1.82.92l.16.12.16.12q.55-.76 1.5-.76zm-1.66.84-.16-.12q-.67.9-.66 2.56h.4q0-1.58.58-2.32zm-.62 2.44h-.2q-.01 1.65.65 2.57l.17-.12.16-.12a4 4 0 0 1-.58-2.33zm.62 2.45-.16.12q.68.92 1.84.93v-.4a1.8 1.8 0 0 1-1.52-.77zm10.37 6.73-.2.02.02.18h.18zm-.13-1.86v-.2h-.21l.01.22zm4-.54-.1-.17zm.76-3.26.2-.01-.04-.55-.32.45zm-.95.94-.11-.17zm-.75.3.04.2zm-4.14-1.28-.15.13zm-.89-5.67.19.07zm2.29-2.51.07.18zm4.53 1.08-.16.11.29.44.07-.52zm.16-1.18v-.2h-.18l-.02.17zm2.06 0h.2v-.2h-.2zm-.07 10.27-.2-.03zm-.25 1.1-.19-.06zm-.47.94-.16-.12zm-1.73 1.24-.06-.19zm-1.35.32-.03-.2zm1.65-9h.2zm0-.34h.2zm-2.3-3v-.2zm-1.9.86.15.12zm0 4.7-.17.12zm-.52 6.9.2-.02-.13-1.86-.2.01-.2.02.13 1.86zm-.13-1.87v.2h1.17v-.4H57.8zm1.17 0v.2q2.05.01 2.95-.58l-.11-.16-.11-.17q-.72.5-2.73.51zm2.84-.54.1.16c.63-.4.9-1.15.9-2.14h-.4c0 .93-.25 1.5-.71 1.8zm.8-1.98h.2q0-.6-.05-1.3l-.2.02-.2.02q.06.67.06 1.26zm-.05-1.28-.16-.11q-.23.3-.42.5l.14.14.15.14q.22-.22.46-.55zm-.44.53-.14-.14q-.18.18-.48.38l.1.17.11.16q.33-.2.56-.43zm-.51.4-.11-.16q-.28.18-.69.28l.05.2.05.19q.46-.12.8-.34zm-.75.31-.05-.2q-.4.1-.94.1v.4q.58 0 1.03-.1zm-.99.1v-.2a4 4 0 0 1-3-1.31l-.15.13-.15.13a4.3 4.3 0 0 0 3.3 1.45zm-3.15-1.38.15-.13a5 5 0 0 1-1.18-3.43h-.4q0 2.25 1.28 3.7zm-1.23-3.56h.2q0-1.12.33-2.04l-.19-.07-.19-.07a6 6 0 0 0-.35 2.18zm.34-2.1.19.06q.33-.93.89-1.5l-.15-.14-.14-.14q-.63.65-.98 1.64zm.93-1.58.15.14q.56-.6 1.28-.9l-.07-.18-.08-.19q-.8.35-1.42.99zm1.36-.94.08.18a4 4 0 0 1 1.56-.32v-.4q-.9 0-1.72.35zm1.64-.34v.2q1.85 0 2.73 1.33l.16-.11.17-.11q-1.02-1.5-3.06-1.5zm2.9 1.42.19.03.16-1.18-.2-.03-.2-.03-.16 1.18zm.15-1.18v.2h2.06v-.4h-2.06zm2.06 0h-.2v8.97h.4v-8.97zm0 8.97h-.2q0 .72-.07 1.27l.2.03.2.02q.06-.58.07-1.32zm-.07 1.3-.2-.03q-.08.56-.24 1.07l.19.06.19.07q.18-.55.25-1.15zm-.25 1.1-.19-.06a3 3 0 0 1-.44.88l.16.12.17.11q.3-.42.49-.98zm-.47.94-.16-.12q-.26.36-.67.68l.12.16.12.16q.45-.35.76-.77zm-.7.72-.13-.16q-.4.3-.96.5l.06.18.07.2q.61-.22 1.07-.56zm-1.03.52-.07-.18q-.55.2-1.3.3l.02.2.03.2q.78-.1 1.4-.33zm-1.35.32-.03-.2q-.75.11-1.71.11v.4q.97 0 1.77-.11zm-1.74.11v-.2h-1.33v.4h1.33zm.98-5.93v.2q1.27.01 1.96-.88a4.2 4.2 0 0 0 .65-2.5h-.2l-.2-.01q0 1.56-.57 2.27-.53.72-1.64.72zm2.41-3.19h.2v-.33h-.4v.33zm0-.33h.2a4 4 0 0 0-.64-2.34l-.16.12-.16.12q.54.71.56 2.1zm-.6-2.22.16-.12a2.2 2.2 0 0 0-1.85-.87v.4q1.03.01 1.53.71zm-1.7-.79v-.2q-1.35 0-2.07.95l.16.12.16.12q.59-.79 1.76-.79zm-1.9.87-.17-.12q-.7.93-.69 2.45h.4q0-1.42.61-2.2zm-.66 2.33h-.2q0 1.46.69 2.49l.16-.12.17-.1q-.61-.9-.62-2.27zm.65 2.37-.16.12q.71 1.04 1.96 1.04v-.4q-1.04 0-1.63-.87zm9.36 1.42-.15.14zm3.26-8.75v-.2zm3.1 1.25-.16.13zm1.1 3.8h-.2zm0 .5v.2h.2v-.2zm-6.43 0v-.2h-.2v.2zm.73 2.1-.14.13zm5-.1.2-.04-.06-.27-.24.14zm.32 1.64.1.17.12-.07-.02-.14zm-6.01-5.1-.2-.01-.02.21h.22zm4.22 0v.2h.2v-.2zm-3.53-1.83-.14-.14zm1.87 7.82v-.2a4.6 4.6 0 0 1-3.49-1.27l-.14.14-.15.14q1.39 1.4 3.78 1.4zm-3.63-1.33.14-.14a5 5 0 0 1-1.23-3.57h-.4q0 2.42 1.34 3.85zm-1.3-3.71h.2q0-2.24 1.18-3.53l-.15-.14-.15-.13a5.5 5.5 0 0 0-1.27 3.8zm1.23-3.67.15.14a4 4 0 0 1 3.18-1.3v-.4q-2.19 0-3.48 1.43zm3.33-1.37v.2q1.92 0 2.94 1.18l.15-.13.15-.13a4.1 4.1 0 0 0-3.24-1.32zm3.1 1.25-.16.13q1.05 1.19 1.06 3.18h.4a5 5 0 0 0-1.16-3.44zm1.1 3.31h-.2v.48h.2l.2.01v-.48zm0 .49h-.2v.49h.4v-.49zm0 .5v-.2h-6.43v.4h6.42zm-6.43 0h-.2q.03 1.4.79 2.23l.14-.14.15-.14a3 3 0 0 1-.68-1.96zm.73 2.1-.14.13q.79.8 2.1.8v-.4q-1.17 0-1.81-.68zm1.96.73v.2q1.63 0 3.14-.85l-.1-.18-.1-.17q-1.42.8-2.94.8zm3.04-.83-.2.04.33 1.64.2-.04.19-.04-.33-1.64zm.32 1.64-.1-.17q-1.4.86-3.35.86v.4q2.04 0 3.56-.92zm-6.01-5.1v.2h4.22v-.4h-4.22zm4.22 0h.2q0-1.23-.58-1.94l-.16.13-.15.13q.48.55.49 1.68zm-.54-1.81.16-.13q-.61-.7-1.64-.7v.4q.87 0 1.33.56zm-1.48-.63v-.2q-.98 0-1.65.67l.14.14.15.14q.55-.55 1.36-.55zm-1.5.61-.15-.14a3 3 0 0 0-.75 1.96l.2.01.2.01q.1-1.16.64-1.7zm16.2 4.67-.16-.12zm0-6.94-.16.13zm-5.65.01-.16-.12zm-1.78 8.33-.14.13zm9.2-9.73-.15.14zm-7.42 8.32-.16.12q1.03 1.31 2.99 1.3v-.4q-1.79 0-2.68-1.14zm2.83 1.22v.2q1.96 0 2.97-1.29l-.15-.12-.16-.12q-.87 1.13-2.66 1.13zm2.82-1.21.15.12q1.01-1.3 1-3.57h-.4q0 2.18-.91 3.33zm.96-3.45h.2q0-2.29-1-3.6l-.16.11-.16.13q.91 1.16.92 3.36zm-.96-3.49.16-.12q-1.03-1.32-2.98-1.31v.4q1.79 0 2.66 1.16zm-2.82-1.23v-.2q-1.95 0-3 1.32l.17.12.15.13q.9-1.17 2.68-1.17zm-2.83 1.24-.16-.12q-1.01 1.31-1 3.6h.4q0-2.2.91-3.35zm-.96 3.48h-.2q-.01 2.26 1 3.56l.16-.12.15-.12a5.3 5.3 0 0 1-.91-3.32zm3.78 6.6v-.2q-2.84 0-4.46-1.7l-.14.15-.14.14a6.3 6.3 0 0 0 4.74 1.81zm-4.6-1.75.15-.14q-1.62-1.69-1.63-4.73h-.4q0 3.16 1.74 5zm-1.68-4.87h.2q0-3.06 1.63-4.73l-.14-.14-.14-.14q-1.76 1.83-1.75 5zm1.69-4.87.14.14a6 6 0 0 1 4.46-1.7v-.4q-2.98 0-4.74 1.82zm4.6-1.75v.2q2.84 0 4.44 1.7l.14-.14.15-.14a6.2 6.2 0 0 0-4.73-1.82zm4.58 1.76-.14.14q1.61 1.66 1.62 4.73h.4q0-3.19-1.73-5.01zm1.68 4.87h-.2q0 3.02-1.63 4.71l.14.14.15.14q1.75-1.85 1.74-5zm-1.69 4.85-.14-.14a6 6 0 0 1-4.44 1.7v.4q2.97 0 4.73-1.82zM91.08 21h-.2v.2h.2zm0-9.66v-.2h-.2v.2zm1.86 0 .2-.04-.04-.16h-.16zm.25 1.22-.2.04.08.36.26-.26zm5.8-.48-.15.13zm.85 8.92v.2h.2V21zm-2.32 0h-.2v.2h.2zm0-5.83h.2zm-3.07-1.94.1.17zm-.9.96-.18-.09v.02l-.01.02zM93.38 21v.2h.2V21zm-2.3 0h.2v-9.66h-.4V21zm0-9.66v.2h1.86v-.4h-1.86zm1.86 0-.2.04.26 1.22.2-.04.19-.04-.26-1.22zm.25 1.22.14.14q1.43-1.4 3.14-1.4v-.4q-1.89.01-3.42 1.52zm3.28-1.46v.2q1.62.02 2.37.9l.15-.12.15-.13q-.9-1.05-2.67-1.05zm2.52.98-.15.13q.79.89.8 2.68h.4q0-1.9-.9-2.94zm.85 2.81h-.2V21h.4v-6.1zm0 6.11v-.2h-2.32v.4h2.32zm-2.32 0h.2v-5.83h-.4V21zm0-5.83h.2q0-1.2-.4-1.85l-.17.1-.17.11q.33.5.34 1.64zm-.37-1.75.16-.1q-.46-.7-1.5-.68v.4q.88.01 1.17.5zm-1.33-.58v-.2q-.8 0-1.48.42l.1.17.11.17q.58-.36 1.27-.36zm-1.37.39-.1-.17a2.5 2.5 0 0 0-.98 1.04l.18.09.18.09q.25-.52.82-.88zm-.9.96-.2-.05q-.17.72-.17 2.16h.4q0-1.42.17-2.06zm-.17 2.1h-.2V21h.4v-4.7zm0 4.71v-.2h-2.3v.4h2.3zm9.38-1.15-.15.14zm3.26-8.75v-.2zm3.1 1.25-.16.13zm1.1 3.8h-.2zm0 .5v.2h.2v-.2zm-6.43 0v-.2h-.2v.2zm.73 2.1-.14.13zm5-.1.2-.04-.06-.27-.24.14zm.32 1.64.1.17.13-.07-.03-.14zm-6.01-5.1-.2-.01-.02.21h.22zm4.22 0v.2h.2v-.2zm-3.53-1.83-.14-.14zm1.87 7.82v-.2a4.6 4.6 0 0 1-3.49-1.27l-.14.14-.15.14q1.39 1.4 3.78 1.4zm-3.63-1.33.14-.14a5 5 0 0 1-1.23-3.57h-.4q0 2.42 1.34 3.85zm-1.3-3.71h.2q0-2.24 1.18-3.53l-.15-.14-.15-.13a5.5 5.5 0 0 0-1.27 3.8zm1.23-3.67.15.14a4 4 0 0 1 3.18-1.3v-.4q-2.18 0-3.48 1.43zm3.33-1.37v.2q1.92 0 2.94 1.18l.15-.13.15-.13a4.1 4.1 0 0 0-3.24-1.32zm3.1 1.25-.16.13q1.05 1.19 1.06 3.18h.4a5 5 0 0 0-1.16-3.44zm1.1 3.31h-.2v.48h.2l.2.01v-.48zm0 .49h-.2v.49h.4v-.49zm0 .5v-.2h-6.43v.4h6.42zm-6.43 0h-.2q.03 1.4.79 2.23l.14-.14.15-.14a3 3 0 0 1-.68-1.96zm.73 2.1-.14.13q.79.8 2.1.8v-.4q-1.17 0-1.81-.68zm1.96.73v.2q1.63 0 3.13-.85l-.1-.18-.1-.17q-1.41.8-2.93.8zm3.04-.83-.2.04.33 1.64.2-.04.19-.04-.33-1.64zm.32 1.64-.1-.17q-1.4.86-3.35.86v.4q2.04 0 3.56-.92zm-6.01-5.1v.2h4.22v-.4h-4.22zm4.22 0h.2q0-1.23-.58-1.94l-.16.13-.15.13q.48.55.49 1.68zm-.54-1.81.16-.13q-.61-.7-1.64-.7v.4q.87 0 1.33.56zm-1.48-.63v-.2q-.98 0-1.65.67l.14.14.15.14q.55-.55 1.36-.55zm-1.5.61-.15-.14a3 3 0 0 0-.75 1.96l.2.01.2.01q.1-1.16.64-1.7zM116.65 21h-.2v.2h.2zm0-12.91v-.2h-.2v.2zm6.9.4-.08.18zm1.7 1.26-.17.12zm.4 3.85.18.06zm-.79 1.3.15.14zm-1.54.9-.06-.2zm-4.32.24.02-.2-.22-.02v.22zm0 4.96v.2h.2V21zm2.95-6.75-.05-.2zm.85-.36-.12-.16zm.48-.55-.17-.1v.01zm.24-.62-.2-.04zM119 9.86v-.2h-.2v.2zm0 4.51h-.2v.17l.17.03zM116.66 21h.2V8.09h-.4V21zm0-12.91v.2h4.3v-.4h-4.3zm4.3 0v.2q1.48 0 2.52.38l.07-.19.07-.18a8 8 0 0 0-2.67-.41zm2.6.4-.07.18q1.02.38 1.6 1.2l.17-.12.16-.12a3.7 3.7 0 0 0-1.8-1.33zm1.7 1.26-.16.12q.6.8.6 2.09h.4q0-1.38-.68-2.33zm.63 2.2h-.2q0 .9-.23 1.59l.2.06.18.06q.25-.75.25-1.7zm-.24 1.65-.19-.06q-.22.66-.73 1.22l.14.14.15.14q.57-.62.82-1.38zm-.78 1.3-.14-.14q-.5.54-1.46.85l.06.19.06.19a4 4 0 0 0 1.63-.95zm-1.54.9-.06-.2q-.94.3-2.32.31v.4q1.42 0 2.44-.32zm-2.38.31v-.2q-1.2 0-1.92-.07l-.02.2-.02.2q.75.07 1.96.07zm-1.94-.07h-.2V21h.4v-4.96zm0 4.96v-.2h-2.35v.4h2.35zm1.69-6.6v.2q.75 0 1.31-.16l-.05-.19-.05-.2q-.5.14-1.21.14zm1.26-.15.05.2q.57-.15.91-.4l-.11-.16-.12-.16a2 2 0 0 1-.78.33zm.85-.36.11.16q.34-.24.55-.61l-.18-.1-.18-.09q-.15.29-.42.48zm.48-.55.17.1q.2-.35.26-.68l-.2-.04-.19-.03q-.05.25-.21.56zm.24-.62.2.04q.06-.33.06-.72h-.4q0 .36-.06.64zm.06-.68h.2q0-1.14-.76-1.78l-.13.16-.12.15q.6.48.6 1.47zm-.69-1.62.13-.16q-.76-.6-2.06-.6v.4q1.2 0 1.8.51zm-1.93-.56v-.2H119v.4h1.96zm-1.96 0h-.2v4.51h.4v-4.5zm0 4.51-.03.2.17.01h.33l1.22.01v-.4l-1.63-.01h-.03zm8.44 6.08-.13.14zm.16-4.37.12.16zm2.97-.92.02.2zm1.92-.2.03.2.18-.03v-.18zm-.4-1.8-.14.15zm-4.14.26-.19.07.07.2.2-.08zm-.58-1.59-.08-.18-.2.08.1.2zm6.53.13-.14.14zm.89 9.04v.2h.2V21zm-1.7 0-.2.05.04.15h.15zm-.38-1.18h.2v-.47l-.34.33zm-1.42 1.04.09.18zm.34-1.69.11.17zm.86-.93.18.09.02-.05v-.04zm0-1.86h.2v-.2h-.2zm-.47.03-.02-.2zm-.47.04v-.2h-.01zm-2.33 2.77-.14.15zm.4 1.96v-.2q-1.28 0-2.05-.68l-.13.15-.13.15q.9.79 2.31.78zm-2.18-.73.13-.15q-.75-.66-.75-2h-.4q-.01 1.47.89 2.3zm-.83-2.15h.2q.02-1.42.9-2.06l-.11-.16-.12-.16q-1.07.8-1.06 2.38zm.99-2.22.12.16a6 6 0 0 1 2.87-.89l-.02-.2-.02-.2a6 6 0 0 0-3.07.97zm2.97-.92.03.2.58-.08-.02-.2-.02-.2-.6.08zm.59-.07.02.2.7-.08v-.2l-.03-.2-.71.08zm.71-.08.02.2.63-.06-.03-.2-.02-.2-.62.07zm.63-.06h.2v-.5h-.4v.5zm0-.5h.2q0-.93-.47-1.42l-.14.14-.14.14q.33.3.34 1.13zm-.4-1.28.13-.14q-.49-.47-1.37-.47v.4q.77.01 1.09.35zm-1.24-.4v-.2q-1.23 0-2.98.67l.07.18.07.2a8 8 0 0 1 2.84-.66zm-2.9.65.18-.06q0-.04-.3-.8l-.18.06-.19.07.22.59.05.15.02.04v.02zm-.3-.8.19-.06-.21-.59-.06-.15-.02-.04-.01-.04-.18.1-.18.08.02.04.05.15.21.58zm-.29-.79.08.19a9 9 0 0 1 3.61-.72v-.4q-2.02 0-3.77.75zm3.7-.73v.2q1.9.01 2.7.8l.13-.14.14-.15q-.98-.91-2.98-.9zm2.83.86-.14.14q.82.75.83 2.6h.4q.01-1.96-.95-2.89zm.89 2.74h-.2V21h.4v-6.3zm0 6.3v-.2h-1.7v.4h1.7zm-1.7 0 .19-.05-.2-.6-.19.06-.19.06.14.43.04.11.01.04zm-.2-.59.19-.06-.17-.53v-.03.03h-.4v.06l.01.05.04.12.14.42zm-.18-.59-.14-.14q-.7.69-1.37 1l.1.18.08.18q.73-.36 1.47-1.07zm-1.42 1.04-.09-.18q-.62.3-1.58.3v.4q1.02.01 1.76-.34zm-1.05-1.31v.2q.85 0 1.5-.41l-.1-.17-.11-.17q-.53.35-1.28.35zm1.4-.38.1.17q.65-.4.93-1.02l-.18-.08-.19-.08q-.22.48-.78.84zm.85-.93h.2v-1.86h-.4v1.86zm0-1.86v-.2l-.49.03.02.2.02.2.33-.02.12-.01zm-.47.03-.02-.2-.42.04h-.03v.4l.49-.04zm-.47.04-.01-.2a5 5 0 0 0-2.14.55l.1.17.11.17q.59-.36 1.96-.5zm-2.04.52-.1-.17q-.76.48-.75 1.48h.4c0-.55.19-.9.55-1.14zm-.65 1.3h-.2q0 .7.42 1.1l.14-.15.13-.14q-.3-.27-.3-.8zm.36.95-.14.15q.45.38 1.16.38v-.4q-.61 0-.89-.27zm9.64 6.1-.2.02.02.18h.18zm-.13-1.86v-.2h-.21l.01.22zm4-.54-.1-.17zm.76-3.26.2-.01-.04-.55-.32.45zm-.95.94-.11-.17zm-.75.3.04.2zm-4.14-1.28-.15.13zm-.89-5.67.19.07zm2.29-2.51.08.18zm4.53 1.08-.16.11.3.44.06-.52zm.16-1.18v-.2h-.17l-.03.17zm2.06 0h.2v-.2h-.2zm-.07 10.27-.2-.03zm-.25 1.1-.19-.06zm-.47.94-.16-.12zm-1.73 1.24-.06-.19zm-1.35.32-.03-.2zm1.65-9h.2zm0-.34h.2zm-2.3-3 .01-.2zm-1.9.86.15.12zm0 4.7-.17.12zm-.52 6.9.2-.02-.13-1.86-.2.01-.2.02.13 1.86zm-.13-1.87v.2h1.17v-.4h-1.17zm1.17 0v.2q2.05.01 2.95-.58l-.11-.16-.11-.17q-.72.5-2.73.51zm2.84-.54.1.16c.63-.4.9-1.15.9-2.14h-.4c0 .93-.25 1.5-.71 1.8zm.8-1.98h.2q0-.6-.05-1.3l-.2.02-.2.02q.06.67.06 1.26zm-.05-1.28-.16-.11q-.22.3-.42.5l.15.14.14.14q.22-.22.46-.55zm-.44.53-.14-.14a3 3 0 0 1-.48.38l.1.17.11.16q.32-.2.56-.43zm-.51.4-.11-.16q-.28.18-.69.28l.05.2.05.19q.46-.12.8-.34zm-.75.31-.04-.2q-.41.1-.94.1v.4q.57 0 1.02-.1zm-.99.1v-.2a4 4 0 0 1-3-1.31l-.15.13-.15.13a4.3 4.3 0 0 0 3.3 1.45zm-3.15-1.38.15-.13a5 5 0 0 1-1.18-3.43h-.4q0 2.25 1.28 3.7zm-1.23-3.56h.2q0-1.12.33-2.04l-.19-.07-.19-.07a6 6 0 0 0-.35 2.18zm.34-2.1.2.06q.31-.93.88-1.5l-.15-.14-.14-.14q-.62.65-.98 1.64zm.93-1.58.15.14q.56-.6 1.29-.9l-.08-.18-.08-.19q-.8.35-1.42.99zm1.36-.94.08.18a4 4 0 0 1 1.56-.32v-.4q-.9 0-1.72.35zm1.64-.34v.2q1.85 0 2.73 1.33l.16-.11.17-.11q-1.02-1.5-3.06-1.5zm2.9 1.42.2.03.15-1.18-.2-.03-.2-.03-.16 1.18zm.15-1.18v.2h2.06v-.4h-2.06zm2.06 0h-.2v8.97h.4v-8.97zm0 8.97h-.2q0 .72-.07 1.27l.2.03.2.02q.06-.58.07-1.32zm-.07 1.3-.2-.03q-.07.56-.24 1.07l.2.06.18.07q.17-.55.26-1.15zm-.25 1.1-.19-.06q-.17.5-.44.88l.16.12.17.11q.3-.42.5-.98zm-.47.94-.16-.12q-.26.36-.67.68l.12.16.12.16q.46-.35.76-.77zm-.7.72-.13-.16q-.4.3-.96.5l.06.18.07.2q.61-.22 1.07-.56zm-1.03.52-.06-.18q-.56.2-1.32.3l.03.2.03.2q.78-.1 1.4-.33zm-1.35.32-.03-.2q-.75.11-1.71.11v.4q.98 0 1.77-.11zm-1.74.11v-.2h-1.33v.4h1.33zm.98-5.93v.2q1.28.01 1.96-.88a4.2 4.2 0 0 0 .65-2.5h-.2l-.2-.01q0 1.56-.57 2.27-.53.72-1.64.72zm2.41-3.19h.2v-.33h-.4v.33zm0-.33h.2a4 4 0 0 0-.63-2.34l-.16.12-.17.12q.54.71.56 2.1zm-.6-2.22.17-.12a2.2 2.2 0 0 0-1.86-.87v.4q1.03.01 1.53.71zm-1.7-.79v-.2q-1.34 0-2.07.95l.16.12.16.12q.59-.79 1.76-.79zm-1.9.87-.17-.12q-.7.93-.69 2.45h.4q0-1.42.61-2.2zm-.66 2.33h-.2q0 1.46.69 2.49l.16-.12.17-.1q-.61-.9-.62-2.27zm.65 2.37-.16.12q.71 1.04 1.96 1.04v-.4q-1.03 0-1.63-.87zm9.36 1.42-.15.14zM152 11.1v-.2zm3.1 1.25-.16.13zm1.1 3.8h-.2zm0 .5v.2h.2v-.2zm-6.43 0v-.2h-.2v.2zm.73 2.1-.14.13zm5-.1.2-.04-.06-.27-.24.14zm.32 1.64.1.17.13-.07-.03-.14zm-6-5.1-.2-.01-.02.21h.21zm4.21 0v.2h.2v-.2zm-3.53-1.83-.14-.14zm1.87 7.82v-.2a4.6 4.6 0 0 1-3.49-1.27l-.14.14-.15.14q1.39 1.4 3.78 1.4zm-3.63-1.33.14-.14a5 5 0 0 1-1.23-3.57h-.4q0 2.42 1.34 3.85zm-1.3-3.71h.2q0-2.24 1.18-3.53l-.15-.14-.15-.13a5.5 5.5 0 0 0-1.27 3.8zm1.23-3.67.15.14a4 4 0 0 1 3.18-1.3v-.4q-2.19 0-3.48 1.43zM152 11.1v.2q1.92 0 2.94 1.18l.15-.13.15-.13A4.1 4.1 0 0 0 152 10.9zm3.1 1.25-.16.13q1.05 1.19 1.06 3.18h.4a5 5 0 0 0-1.16-3.44zm1.1 3.31h-.2v.48h.2l.2.01v-.48zm0 .49h-.2v.49h.4v-.49zm0 .5v-.2h-6.43v.4h6.42zm-6.43 0h-.2q.03 1.4.79 2.23l.14-.14.15-.14a3 3 0 0 1-.68-1.96zm.73 2.1-.14.13q.79.8 2.1.8v-.4q-1.18 0-1.81-.68zm1.96.73v.2q1.63 0 3.14-.85l-.1-.18-.1-.17q-1.42.8-2.94.8zm3.04-.83-.2.04.33 1.64.2-.04.19-.04-.33-1.64zm.32 1.64-.1-.17q-1.4.86-3.35.86v.4q2.05 0 3.56-.92zm-6-5.1v.2h4.21v-.4h-4.22zm4.21 0h.2q0-1.23-.58-1.94l-.16.13-.15.13q.49.55.49 1.68zm-.54-1.81.16-.13q-.61-.7-1.64-.7v.4q.87 0 1.33.56zm-1.48-.63v-.2q-.97 0-1.65.67l.14.14.15.14q.55-.55 1.36-.55zm-1.5.61-.15-.14a3 3 0 0 0-.75 1.96l.2.01.2.01q.1-1.16.64-1.7zm7.06 7.09-.2-.03-.02.13.12.07zm.24-1.74.1-.17-.26-.14-.04.29zm1.47.58-.05.19zm2.82-.04.11.17zm.44-.84h.2zm-.4-.8-.12.17zm-1.52-.71.07-.2zm-.5-.19-.08.19zm-1.93-1.15-.15.13zm.36-3.75-.12-.16zm5.9-.01.2.07.06-.17-.16-.08zm-.56 1.59-.09.18.2.1.07-.21zm-3.72-.4.1.17zm-.01 1.4-.11.17zm1.48.65-.07.19h.02zm.52.2-.07.18zm1.96 1.15-.15.14zm.62 1.75h.2zm-3.75 3.04v-.2q-2.1 0-3.32-.7l-.1.17-.1.17q1.35.76 3.52.76zm-3.42-.73.2.02.23-1.73-.2-.03-.2-.02-.23 1.73zm.24-1.74-.1.18q.6.33 1.52.59l.05-.2.06-.19a7 7 0 0 1-1.44-.55zm1.47.58-.05.19q.9.25 1.69.25v-.4q-.7 0-1.59-.24zm1.64.24v.2q.8 0 1.3-.31l-.12-.17-.1-.17q-.36.25-1.08.25zm1.18-.28.11.17q.53-.36.53-1.01h-.4q0 .45-.35.68zm.44-.84h.2q0-.6-.49-.96l-.11.17-.12.16q.32.23.32.63zm-.4-.8.12-.16a8 8 0 0 0-1.57-.74l-.07.19-.07.18a7 7 0 0 1 1.47.7zm-1.52-.71.07-.2-.5-.18-.07.2-.08.18.5.18zm-.5-.19.07-.19a5 5 0 0 1-1.85-1.1l-.15.14-.15.14q.65.68 2 1.2zm-1.93-1.15.15-.14q-.53-.56-.54-1.6h-.4q0 1.16.64 1.87zm-.59-1.73h.2q0-1.24.87-1.86l-.12-.16-.12-.16a2.6 2.6 0 0 0-1.03 2.18zm.95-2.02.12.16q.88-.66 2.55-.67v-.4q-1.75 0-2.79.75zm2.66-.7v.2a7 7 0 0 1 3.16.67l.09-.18.09-.18a7.4 7.4 0 0 0-3.34-.72zm3.25.69-.19-.07-.57 1.6.19.06.19.07.57-1.6zm-.57 1.59.08-.18a6.4 6.4 0 0 0-2.71-.66v.4q1.2 0 2.54.62zm-2.63-.64v-.2q-.73 0-1.2.26l.1.17.11.18q.32-.21.99-.21zm-1.1.23-.1-.17q-.47.3-.48.88h.4q0-.37.3-.53zm-.38.7h-.2a1 1 0 0 0 .47.88l.11-.17.11-.17a.6.6 0 0 1-.29-.53zm.38.71-.1.17q.4.27 1.5.67l.08-.19.07-.19a8 8 0 0 1-1.44-.63zm1.48.65-.05.2h.01l.05.01.15.06.06-.19.07-.19-.25-.08zm.23.08-.07.19.29.1.07-.18.08-.18-.3-.12zm.3.11-.07.2q1.3.46 1.87 1.1l.15-.14.14-.13a5 5 0 0 0-2.03-1.21zm1.95 1.16-.15.14q.56.6.57 1.61h.4q0-1.15-.68-1.88zm.62 1.75h-.2q0 1.37-.91 2.09l.13.15.12.16a3 3 0 0 0 1.06-2.4zm-.99 2.24-.12-.15a4 4 0 0 1-2.64.75v.4q1.84 0 2.9-.84z" mask="url(#b)"/><defs><linearGradient id="a" x1="4.82" x2="22.29" y1="2.35" y2="23.18" gradientUnits="userSpaceOnUse"><stop stop-color="#0DF"/><stop offset="1" stop-color="#0C60F2"/></linearGradient></defs></svg>